<?xml version="1.0" standalone="no"?><!DOCTYPE svg PUBLIC "-//W3C//DTD SVG 1.1//EN" "http://www.w3.org/Graphics/SVG/1.1/DTD/svg11.dtd"><svg t="1733913128223" class="icon" viewBox="0 0 1024 1024" version="1.1" xmlns="http://www.w3.org/2000/svg" p-id="14346" xmlns:xlink="http://www.w3.org/1999/xlink" width="200" height="200"><path d="M160 713.664V848H128V640h196.864v32h-150.08c60.64 132.192 194.176 224 349.152 224 167.2 0 309.44-106.88 362.144-256h33.792c-53.984 167.136-210.848 288-395.936 288A415.904 415.904 0 0 1 160 713.664zM864 310.336V195.84h32v190.464h-187.648v-32h141.952C790.144 220.896 655.936 128 500.064 128c-167.2 0-309.44 106.88-362.144 256H104.128c53.984-167.136 210.848-288 395.936-288C656.64 96 793.024 182.496 864 310.336z" fill="#5D6D7E" p-id="14347"></path></svg>