<?xml version="1.0" standalone="no"?><!DOCTYPE svg PUBLIC "-//W3C//DTD SVG 1.1//EN" "http://www.w3.org/Graphics/SVG/1.1/DTD/svg11.dtd"><svg t="1740666872116" class="icon" viewBox="0 0 1024 1024" version="1.1" xmlns="http://www.w3.org/2000/svg" p-id="13692" xmlns:xlink="http://www.w3.org/1999/xlink" width="200" height="200"><path d="M144 400m32 0l672 0q32 0 32 32l0 448q0 32-32 32l-672 0q-32 0-32-32l0-448q0-32 32-32Z" fill="#FFFFFF" p-id="13693"></path><path d="M160 384h704a32 32 0 0 1 32 32v480a32 32 0 0 1-32 32H160a32 32 0 0 1-32-32V416a32 32 0 0 1 32-32z m0 32v480h704V416H160z" fill="#5D6D7E" p-id="13694"></path><path d="M496 161.088L363.776 304.928a16 16 0 1 1-23.552-21.632L512 96.416l171.84 186.88a16 16 0 0 1-23.552 21.632L528 161.088v596.736a16 16 0 1 1-32 0V161.088z" fill="#27A2DF" p-id="13695"></path></svg>