<?xml version="1.0" standalone="no"?><!DOCTYPE svg PUBLIC "-//W3C//DTD SVG 1.1//EN" "http://www.w3.org/Graphics/SVG/1.1/DTD/svg11.dtd"><svg t="1755312712048" class="icon" viewBox="0 0 1024 1024" version="1.1" xmlns="http://www.w3.org/2000/svg" p-id="27348" xmlns:xlink="http://www.w3.org/1999/xlink" width="200" height="200"><path d="M160.928 128h587.072L864 237.536V896H160.928z" fill="#FFFFFF" p-id="27349"></path><path d="M896 800v96a32 32 0 0 1-32 32H192a32 32 0 0 1-32-32v-64h32v64h672v-96h32zM739.2 96L896 256.608V544h-32V269.632L725.696 128H192v96H160V128a32 32 0 0 1 32-32h547.2z" fill="#5B6B7A" p-id="27350"></path><path d="M928 544v256H320v-256h608z m-272.864 37.632c-14.08 0-26.112 2.112-36.064 6.368-9.984 4.256-17.6 10.432-22.88 18.56a47.104 47.104 0 0 0-7.936 26.176c0 14.528 5.6 26.816 16.864 36.896 8 7.168 21.92 13.216 41.76 18.112 15.392 3.84 25.28 6.496 29.632 8 6.304 2.24 10.752 4.896 13.312 7.936 2.528 3.04 3.808 6.72 3.808 11.072 0 6.72-3.04 12.64-9.088 17.696-6.016 5.024-15.008 7.552-26.912 7.552-11.264 0-20.192-2.848-26.816-8.512-6.624-5.664-11.04-14.528-13.184-26.624l-36 3.52c2.4 20.48 9.824 36.096 22.24 46.816 12.416 10.688 30.208 16.064 53.376 16.064 15.904 0 29.216-2.24 39.872-6.72a53.952 53.952 0 0 0 33.504-49.92c0-11.584-2.432-21.312-7.328-29.184a51.456 51.456 0 0 0-20.224-18.624c-8.64-4.544-21.952-8.96-39.936-13.184-18.016-4.256-29.344-8.32-34.016-12.256a14.08 14.08 0 0 1-5.504-11.136c0-4.736 1.952-8.544 5.888-11.36 6.08-4.416 14.496-6.624 25.248-6.624 10.4 0 18.24 2.048 23.424 6.176 5.216 4.16 8.64 10.88 10.208 20.32l36.992-1.6c-0.576-16.864-6.72-30.304-18.304-40.416-11.648-10.08-28.96-15.104-51.936-15.104z m-165.504 0c-25.664 0-46.4 8.416-62.144 25.28-15.744 16.896-23.616 40.576-23.616 71.072 0 28.864 7.84 51.584 23.488 68.192 15.68 16.64 35.68 24.96 60 24.96 19.68 0 35.904-4.864 48.704-14.56 12.8-9.728 21.952-24.576 27.424-44.576l-35.84-11.36c-3.104 13.408-8.192 23.232-15.264 29.472a37.056 37.056 0 0 1-25.376 9.376c-13.344 0-24.16-4.896-32.512-14.72-8.32-9.856-12.48-26.336-12.48-49.504 0-21.856 4.224-37.632 12.672-47.36 8.448-9.792 19.488-14.656 33.056-14.656 9.856 0 18.208 2.752 25.056 8.256 6.88 5.504 11.424 12.992 13.568 22.496l36.64-8.736c-4.16-14.688-10.432-25.92-18.752-33.76-14.016-13.248-32.224-19.872-54.624-19.872z m-103.968 151.232h-35.104V768h35.104v-35.136z m377.472-148.128h-35.264L793.376 768h29.664l65.632-183.264h-34.304l-44.864 135.648-46.4-135.648zM704 256v256H96V256h608zM160.928 444.864H125.76V480h35.136v-35.136zM260.16 296.736H192.544V480h69.632c13.664 0 24.576-1.28 32.736-3.872 10.912-3.52 19.584-8.384 26.016-14.624 8.48-8.256 15.04-19.04 19.616-32.384 3.744-10.912 5.632-23.904 5.632-39.008 0-17.152-2.016-31.584-6.016-43.296a80.064 80.064 0 0 0-17.504-29.696 61.28 61.28 0 0 0-27.616-16.864c-8-2.336-19.616-3.52-34.88-3.52z m210.656 0H431.68L360.32 480h39.232l15.136-41.6h73.248l16 41.6h40.256l-73.376-183.264z m202.176 0h-128.8v31.04h45.76V480h37.024v-152.256h46.016v-31.008z m-426.816 31.04c15.072 0 25.216 0.544 30.368 1.728a35.2 35.2 0 0 1 17.12 8.64c4.48 4.224 8 10.144 10.496 17.728 2.496 7.584 3.744 18.464 3.744 32.64 0 14.144-1.248 25.344-3.744 33.536-2.496 8.224-5.728 14.112-9.664 17.696-3.968 3.584-8.96 6.144-14.944 7.616-4.608 1.184-12.064 1.76-22.4 1.76h-27.616v-121.376h16.64z m204.64 11.712l25.248 68h-50.016l24.768-68z" fill="#5A6978" p-id="27351"></path><path d="M202.272 603.904l2.24 1.856 82.88 82.88-82.88 82.912a16 16 0 0 1-24.512-20.384l1.856-2.24 44.256-44.288h-18.624a176.288 176.288 0 0 1-140.32-69.568 16 16 0 0 1 25.472-19.392 144.288 144.288 0 0 0 106.912 56.768l7.936 0.224h18.656l-44.288-44.288a16 16 0 0 1-1.856-20.416l1.856-2.24a16 16 0 0 1 20.416-1.824z" fill="#2F98CF" p-id="27352"></path></svg>