<?xml version="1.0" standalone="no"?><!DOCTYPE svg PUBLIC "-//W3C//DTD SVG 1.1//EN" "http://www.w3.org/Graphics/SVG/1.1/DTD/svg11.dtd"><svg t="1734355035144" class="icon" viewBox="0 0 1024 1024" version="1.1" xmlns="http://www.w3.org/2000/svg" p-id="26640" xmlns:xlink="http://www.w3.org/1999/xlink" width="200" height="200"><path d="M512 512m-400 0a400 400 0 1 0 800 0 400 400 0 1 0-800 0Z" fill="#FFFFFF" p-id="26641"></path><path d="M512 928c229.76 0 416-186.24 416-416S741.76 96 512 96 96 282.24 96 512s186.24 416 416 416z m0-32C299.936 896 128 724.064 128 512S299.936 128 512 128s384 171.936 384 384-171.936 384-384 384z" fill="#5D6D7E" p-id="26642"></path><path d="M688.512 512.384l-288 208v-416z" fill="#27A2DF" p-id="26643"></path></svg>