<?xml version="1.0" standalone="no"?><!DOCTYPE svg PUBLIC "-//W3C//DTD SVG 1.1//EN" "http://www.w3.org/Graphics/SVG/1.1/DTD/svg11.dtd"><svg t="1733913145168" class="icon" viewBox="0 0 1024 1024" version="1.1" xmlns="http://www.w3.org/2000/svg" p-id="14659" xmlns:xlink="http://www.w3.org/1999/xlink" width="200" height="200"><path d="M832 928a96 96 0 0 0 96-96c0-53.024-96-190.368-96-190.368S736 778.976 736 832a96 96 0 0 0 96 96z" fill="#C49F74" fill-opacity=".3" p-id="14660"></path><path d="M832 641.632l15.008 22.304 6.4 9.856 10.88 17.12 7.744 12.64 7.968 13.376 7.968 13.856c2.624 4.704 5.248 9.408 7.776 14.144l7.36 14.144 6.784 13.984C920.64 796.032 928 817.28 928 832a96 96 0 0 1-192 0c0-14.72 7.392-35.968 18.112-58.944l6.784-13.984 7.36-14.144 3.84-7.072 7.904-14.048 8-13.632 7.904-13.024 7.584-12.224 7.104-11.136 14.304-21.76 7.104-10.4z m0 58.112l-9.952 15.968-10.432 17.408c-5.888 10.016-11.328 19.712-16.256 28.992l-3.616 6.912-6.528 13.12-5.536 12.096c-7.584 17.28-11.68 30.56-11.68 37.76a64 64 0 1 0 128 0c0-7.2-4.096-20.48-11.68-37.76l-5.536-12.096-6.528-13.12a810.176 810.176 0 0 0-19.84-35.904l-10.464-17.408-9.952-15.968z" fill="#C49F74" p-id="14661"></path><path d="M514.432 138.56l293.696 279.616a32 32 0 0 1 0.416 45.92L470.4 798.592a32 32 0 0 1-44.896 0.128l-286.208-280.192a32 32 0 0 1-0.352-45.408L469.632 139.232a32 32 0 0 1 44.8-0.64z" fill="#FFFFFF" p-id="14662"></path><path d="M624 864a16 16 0 0 1 2.88 31.744L624 896h-352a16 16 0 0 1-2.88-31.744L272 864h352zM513.696 106.56l316.8 316.8a32 32 0 0 1 0 45.248L468.448 830.624a32 32 0 0 1-45.248 0l-316.8-316.768a32 32 0 0 1 0-45.248L255.04 319.968 112 320a16 16 0 0 1-2.88-31.744L112 288h175.008l181.44-181.44a32 32 0 0 1 45.248 0zM741.824 512H149.792l296 296L741.856 512zM491.072 129.152L332.288 288 464 288a16 16 0 0 1 2.88 31.744L464 320H300.256l-160 160h633.568l34.048-34.016-316.8-316.8z" fill="#5D6D7E" p-id="14663"></path></svg>